<?xml version="1.0" standalone="no"?>
<!DOCTYPE svg PUBLIC "-//W3C//DTD SVG 20010904//EN"
 "http://www.w3.org/TR/2001/REC-SVG-20010904/DTD/svg10.dtd">
<svg version="1.0" xmlns="http://www.w3.org/2000/svg"
 width="400.000000pt" height="400.000000pt" viewBox="0 0 400.000000 400.000000"
 preserveAspectRatio="xMidYMid meet">

<g transform="translate(0.000000,400.000000) scale(0.100000,-0.100000)"
fill="#000000" stroke="none">
<path d="M1926 3485 c-227 -37 -451 -122 -636 -243 -416 -269 -701 -731 -700
-1135 0 -161 43 -281 135 -381 42 -46 43 -50 31 -75 -24 -46 -39 -136 -34
-208 3 -56 11 -85 41 -145 66 -134 177 -209 316 -214 l65 -2 62 -84 c254 -342
706 -550 1060 -487 129 22 285 85 408 164 76 49 192 178 251 281 l52 89 54 8
c119 17 264 118 322 225 69 127 75 262 17 371 -32 60 -102 134 -160 168 l-27
16 37 37 c54 54 85 112 114 214 34 117 36 281 5 407 -85 342 -455 772 -801
928 -126 57 -199 73 -368 77 -104 2 -184 -1 -244 -11z m382 -1521 c120 -35
244 -15 345 56 l58 40 19 -45 c32 -74 98 -163 148 -200 48 -35 118 -57 153
-48 18 5 19 -1 19 -88 0 -145 -46 -386 -100 -527 -99 -258 -260 -429 -492
-521 -124 -50 -200 -65 -333 -65 -139 0 -230 20 -376 83 -181 78 -366 220
-478 365 -115 149 -210 379 -246 593 -6 40 -5 41 24 48 80 17 200 141 232 240
7 22 14 41 14 42 1 1 28 -9 62 -22 89 -36 207 -58 266 -51 57 8 120 37 159 73
25 24 30 25 72 14 86 -21 180 12 256 92 l33 36 54 -49 c39 -36 71 -55 111 -66z
m867 -200 c64 -43 115 -95 143 -149 22 -42 27 -63 27 -130 0 -71 -4 -88 -33
-147 -18 -37 -53 -88 -78 -113 -44 -46 -138 -97 -201 -110 l-32 -6 24 72 c50
145 94 416 95 577 0 17 3 32 8 32 4 0 25 -12 47 -26z m-2279 -126 c32 -6 60
-12 62 -13 1 -1 7 -28 13 -61 16 -93 58 -231 100 -328 22 -49 39 -91 39 -94 0
-9 -94 10 -136 28 -96 41 -179 158 -192 267 -7 65 26 213 48 213 4 0 33 -5 66
-12z"/>
<path d="M2325 1666 c-42 -18 -65 -57 -65 -110 0 -86 88 -133 168 -92 80 41
71 166 -13 202 -42 17 -51 17 -90 0z"/>
<path d="M1608 1594 c-76 -41 -74 -159 2 -199 59 -30 127 -8 155 51 19 40 19
56 1 99 -25 58 -99 81 -158 49z"/>
<path d="M2084 1373 c-23 -24 -44 -76 -44 -113 0 -65 62 -131 103 -109 25 15
21 35 -13 59 -36 26 -39 57 -8 111 17 31 19 41 8 54 -16 19 -25 19 -46 -2z"/>
<path d="M2309 949 c-27 -31 -59 -55 -84 -64 -54 -19 -147 -19 -193 1 -42 17
-92 61 -92 81 0 18 -49 17 -56 -1 -8 -21 22 -72 59 -100 74 -56 199 -74 296
-41 89 29 172 123 141 160 -7 8 -16 15 -19 15 -4 0 -27 -23 -52 -51z"/>
</g>
</svg>
